HIERARCHY
ROOT Hips
{
	OFFSET 0.00000 0.00000 0.00000
	CHANNELS 6 Xposition Yposition Zposition Zrotation Yrotation Xrotation 
	JOINT LHipJoint
	{
		OFFSET 0 0 0
		CHANNELS 3 Zrotation Yrotation Xrotation
		JOINT LeftUpLeg
		{
			OFFSET 1.84395 -1.68683 0.74144
			CHANNELS 3 Zrotation Yrotation Xrotation
			JOINT LeftLeg
			{
				OFFSET 2.27037 -6.23779 0.00000
				CHANNELS 3 Zrotation Yrotation Xrotation
				JOINT LeftFoot
				{
					OFFSET 2.56918 -7.05877 0.00000
					CHANNELS 3 Zrotation Yrotation Xrotation
					JOINT LeftToeBase
					{
						OFFSET 0.22276 -0.61202 1.71784
						CHANNELS 3 Zrotation Yrotation Xrotation
						End Site
						{
							OFFSET 0.00000 -0.00000 0.91613
						}
					}
				}
			}
		}
	}
	JOINT RHipJoint
	{
		OFFSET 0 0 0
		CHANNELS 3 Zrotation Yrotation Xrotation
		JOINT RightUpLeg
		{
			OFFSET -1.76833 -1.68684 0.74144
			CHANNELS 3 Zrotation Yrotation Xrotation
			JOINT RightLeg
			{
				OFFSET -2.49360 -6.85110 0.00000
				CHANNELS 3 Zrotation Yrotation Xrotation
				JOINT RightFoot
				{
					OFFSET -2.55538 -7.02085 0.00000
					CHANNELS 3 Zrotation Yrotation Xrotation
					JOINT RightToeBase
					{
						OFFSET -0.21516 -0.59115 1.68050
						CHANNELS 3 Zrotation Yrotation Xrotation
						End Site
						{
							OFFSET -0.00000 -0.00000 0.89604
						}
					}
				}
			}
		}
	}
	JOINT LowerBack
	{
		OFFSET 0 0 0
		CHANNELS 3 Zrotation Yrotation Xrotation
		JOINT Spine
		{
			OFFSET 0.06382 1.72312 -0.19613
			CHANNELS 3 Zrotation Yrotation Xrotation
			JOINT Spine1
			{
				OFFSET -0.00055 1.73507 0.23859
				CHANNELS 3 Zrotation Yrotation Xrotation
				JOINT Neck
				{
					OFFSET 0 0 0
					CHANNELS 3 Zrotation Yrotation Xrotation
					JOINT Neck1
					{
						OFFSET 0.03638 1.65562 0.09633
						CHANNELS 3 Zrotation Yrotation Xrotation
						JOINT Head
						{
							OFFSET 0.06388 1.62807 -0.32386
							CHANNELS 3 Zrotation Yrotation Xrotation
							End Site
							{
								OFFSET 0.00995 1.67644 -0.12021
							}
						}
					}
				}
				JOINT LeftShoulder
				{
					OFFSET 0 0 0
					CHANNELS 3 Zrotation Yrotation Xrotation
					JOINT LeftArm
					{
						OFFSET 3.09648 1.42991 0.28122
						CHANNELS 3 Zrotation Yrotation Xrotation
						JOINT LeftForeArm
						{
							OFFSET 5.11878 -0.00000 -0.00000
							CHANNELS 3 Zrotation Yrotation Xrotation
							JOINT LeftHand
							{
								OFFSET 3.59971 -0.00000 0.00000
								CHANNELS 3 Zrotation Yrotation Xrotation
								JOINT LeftFingerBase
								{
									OFFSET 0 0 0
									CHANNELS 3 Zrotation Yrotation Xrotation
									JOINT LeftHandIndex1
									{
										OFFSET 0.62877 -0.00000 0.00000
										CHANNELS 3 Zrotation Yrotation Xrotation
										End Site
										{
											OFFSET 0.50693 -0.00000 0.00000
										}
									}
								}
								JOINT LThumb
								{
									OFFSET 0 0 0
									CHANNELS 3 Zrotation Yrotation Xrotation
									End Site
									{
										OFFSET 0.51467 -0.00000 0.51467
									}
								}
							}
						}
					}
				}
				JOINT RightShoulder
				{
					OFFSET 0 0 0
					CHANNELS 3 Zrotation Yrotation Xrotation
					JOINT RightArm
					{
						OFFSET -3.33565 1.14597 0.05047
						CHANNELS 3 Zrotation Yrotation Xrotation
						JOINT RightForeArm
						{
							OFFSET -5.49020 -0.00000 0.00000
							CHANNELS 3 Zrotation Yrotation Xrotation
							JOINT RightHand
							{
								OFFSET -3.20659 -0.00000 -0.00000
								CHANNELS 3 Zrotation Yrotation Xrotation
								JOINT RightFingerBase
								{
									OFFSET 0 0 0
									CHANNELS 3 Zrotation Yrotation Xrotation
									JOINT RightHandIndex1
									{
										OFFSET -0.69188 -0.00000 0.00000
										CHANNELS 3 Zrotation Yrotation Xrotation
										End Site
										{
											OFFSET -0.55781 -0.00000 0.00000
										}
									}
								}
								JOINT RThumb
								{
									OFFSET 0 0 0
									CHANNELS 3 Zrotation Yrotation Xrotation
									End Site
									{
										OFFSET -0.56633 -0.00000 0.56633
									}
								}
							}
						}
					}
				}
			}
		}
	}
}
MOTION
Frames: 13
Frame Time: .0083333
0.7276 17.5174 8.7469 -8.7048 -1.4120 7.0651 0.0000 0.0000 0.0000 -13.2213 -32.3290 15.6287 0.0071 -0.5452 -1.4981 -4.4952 36.4537 -28.7633 0.0002 -0.0913 -0.2509 0.0000 0.0000 0.0000 25.8196 18.6183 1.2200 -0.1419 -2.4277 6.6894 0.3518 -16.7132 -20.0190 -0.0079 -0.5753 1.5808 4.8700 -0.1932 3.4242 4.7279 0.6996 -9.6875 2.3370 0.1604 -12.4353 1.7731 -1.5591 -12.4885 -0.8378 -2.6495 35.9069 -1.0748 -1.0325 14.3697 -0.0000 0.0000 0.0000 -76.9525 -47.0885 42.1266 31.2750 -41.9615 -12.2533 -0.0000 0.0000 -25.6295 22.2645 -13.1725 -5.3301 -7.1250 0.0000 -0.0000 -3.4875 15.8051 2.4103 -0.0000 0.0000 0.0000 89.2781 38.3413 43.8549 -35.3418 45.0546 -15.0547 0.0000 -0.0000 -7.6006 9.2138 -40.4709 -6.0103 7.1250 -0.0000 -0.0000 54.0092 -62.1843 -26.5453
0.7315 17.5185 8.7607 -8.6819 -1.4442 7.0579 0.0000 0.0000 0.0000 -13.3036 -32.2872 15.7332 0.0078 -0.5687 -1.5627 -4.4699 36.4250 -28.8952 0.0000 0.0125 0.0342 0.0000 0.0000 0.0000 25.8070 18.6721 1.3108 -0.1417 -2.4262 6.6852 0.3507 -16.7420 -20.0825 -0.0097 -0.6362 1.7482 5.2954 -0.2170 3.5050 4.4127 0.6878 -9.7581 1.7608 0.0914 -12.5619 1.8746 -1.4801 -12.6457 -0.5209 -2.6874 36.1518 -0.9752 -0.9875 14.5261 0.0000 -0.0000 0.0000 -78.2004 -45.7439 40.9007 31.8265 -42.4084 -12.6237 -0.0000 0.0000 -25.6192 22.4396 -13.2020 -5.3881 -7.1250 0.0000 -0.0000 -3.3683 15.7552 2.3313 0.0000 -0.0000 0.0000 89.1684 38.6145 43.5844 -36.0224 45.5285 -15.5385 0.0000 -0.0000 -6.4457 10.1741 -40.0844 -6.5917 7.1250 -0.0000 -0.0000 54.3003 -61.6860 -26.1089
0.7368 17.5187 8.7735 -8.5957 -1.5167 7.0356 0.0000 0.0000 0.0000 -13.4346 -32.1151 15.7697 0.0082 -0.5840 -1.6049 -4.4466 36.3470 -28.8237 0.0000 -0.0063 -0.0172 0.0000 0.0000 0.0000 25.7361 18.7636 1.4164 -0.1434 -2.4402 6.7238 0.3446 -16.7711 -20.2035 -0.0106 -0.6638 1.8242 5.6301 -0.2153 3.5099 4.1088 0.6919 -9.7662 1.2417 0.0407 -12.5685 1.9243 -1.4062 -12.7948 -0.1955 -2.7189 36.2889 -0.8592 -0.9466 14.6324 0.0000 -0.0000 0.0000 -79.4459 -44.4634 39.6777 32.4634 -42.9135 -13.0553 -0.0000 0.0000 -25.7543 22.5282 -13.0296 -5.3426 -7.1250 0.0000 -0.0000 -3.2988 15.9305 2.2705 0.0000 -0.0000 0.0000 88.4899 39.5337 43.9651 -36.4318 45.8078 -15.8313 0.0000 -0.0000 -6.5581 10.4312 -39.8980 -6.7346 7.1250 -0.0000 -0.0000 54.2647 -61.5008 -25.8512
0.7425 17.5175 8.7860 -8.5104 -1.6074 7.0393 0.0000 0.0000 0.0000 -13.4847 -31.8230 15.6639 0.0082 -0.5859 -1.6100 -4.4037 36.1792 -28.6058 0.0001 -0.0691 -0.1899 0.0000 0.0000 0.0000 25.6509 18.8228 1.4704 -0.1447 -2.4517 6.7559 0.3439 -16.7885 -20.2415 -0.0085 -0.5937 1.6313 5.9236 -0.2120 3.4951 3.8502 0.6974 -9.7803 0.7957 -0.0025 -12.5718 1.9645 -1.3416 -12.8918 0.0278 -2.7203 36.3301 -0.7763 -0.9100 14.6797 -0.0000 0.0000 0.0000 -80.6081 -43.2583 38.5212 32.9779 -43.3131 -13.4069 -0.0000 0.0000 -25.9728 22.6112 -12.9144 -5.3179 -7.1250 0.0000 -0.0000 -3.2361 16.0454 2.2191 -0.0000 0.0000 0.0000 86.9795 41.1553 45.4959 -36.1614 45.6239 -15.6377 0.0000 -0.0000 -8.6148 8.9140 -40.3403 -5.7974 7.1250 -0.0000 -0.0000 53.5601 -62.1813 -26.2491
0.7444 17.5164 8.7995 -8.4529 -1.7285 7.0395 0.0000 0.0000 0.0000 -13.5082 -31.5438 15.5911 0.0082 -0.5853 -1.6083 -4.3943 36.0936 -28.3744 0.0006 -0.1632 -0.4483 0.0000 0.0000 0.0000 25.6156 18.9077 1.5589 -0.1445 -2.4498 6.7504 0.3470 -16.8115 -20.2436 -0.0063 -0.5128 1.4092 6.1832 -0.1982 3.4784 3.6198 0.7161 -9.7901 0.3974 -0.0339 -12.5694 2.0178 -1.2738 -12.9695 0.2478 -2.7180 36.3327 -0.6956 -0.8710 14.7043 0.0000 -0.0000 0.0000 -81.5746 -42.0967 37.5756 33.4361 -43.6625 -13.7222 -0.0000 0.0000 -26.1342 22.5398 -12.7475 -5.2324 -7.1250 0.0000 -0.0000 -3.2774 16.2315 2.2344 0.0000 -0.0000 0.0000 86.0187 42.2420 46.2218 -36.3210 45.7327 -15.7519 0.0000 -0.0000 -9.6026 8.1116 -40.8123 -5.3220 7.1250 -0.0000 -0.0000 53.5373 -62.6963 -26.8679
0.7422 17.5160 8.8134 -8.4649 -1.8861 7.0301 0.0000 0.0000 0.0000 -13.5306 -31.4080 15.6384 0.0077 -0.5671 -1.5584 -4.3501 36.0280 -28.5559 0.0001 -0.0559 -0.1537 0.0000 0.0000 0.0000 25.6869 19.0062 1.6705 -0.1451 -2.4547 6.7640 0.3440 -16.8076 -20.2728 -0.0054 -0.4747 1.3043 6.4461 -0.1443 3.4537 3.4116 0.7901 -9.7837 0.0135 -0.0369 -12.5408 2.0721 -1.2177 -13.0196 0.4981 -2.7422 36.2975 -0.6059 -0.8394 14.7052 -0.0000 0.0000 0.0000 -82.3314 -41.0444 36.9898 33.8048 -43.9396 -13.9775 -0.0000 0.0000 -26.0794 22.4809 -12.6193 -5.1660 -7.1250 0.0000 -0.0000 -3.3123 16.3748 2.2479 -0.0000 0.0000 0.0000 85.3464 43.0041 46.2994 -36.5410 45.8816 -15.9096 0.0000 -0.0000 -9.7791 7.9529 -40.9755 -5.2341 7.1250 -0.0000 -0.0000 53.6380 -62.8427 -27.1134
0.7397 17.5142 8.8257 -8.5081 -1.9674 7.0476 0.0000 0.0000 0.0000 -13.4775 -31.3367 15.5997 0.0067 -0.5297 -1.4555 -4.2655 35.8882 -28.8445 0.0005 0.1381 0.3794 0.0000 0.0000 0.0000 25.7657 19.0149 1.6915 -0.1465 -2.4666 6.7971 0.3394 -16.7767 -20.2734 -0.0038 -0.3992 1.0969 6.7094 -0.0860 3.4179 3.2360 0.8737 -9.7929 -0.3357 -0.0335 -12.5235 2.0911 -1.1700 -13.0495 0.7417 -2.7627 36.2259 -0.5116 -0.8125 14.6846 0.0000 -0.0000 0.0000 -82.9901 -40.1721 36.7042 33.9801 -44.0699 -14.0992 -0.0000 0.0000 -25.9427 22.5684 -12.7753 -5.2509 -7.1250 0.0000 -0.0000 -3.2589 16.1988 2.2241 0.0000 -0.0000 0.0000 84.4859 43.5593 46.1736 -36.6690 45.9678 -16.0016 0.0000 -0.0000 -9.8961 8.1939 -41.0354 -5.4004 7.1250 -0.0000 -0.0000 53.9381 -62.8148 -27.2783
0.7365 17.5121 8.8374 -8.4747 -1.9467 7.0784 0.0000 0.0000 0.0000 -13.3953 -31.1648 15.3984 0.0060 -0.4993 -1.3719 -4.2288 35.7413 -28.6589 0.0002 0.0976 0.2681 0.0000 0.0000 0.0000 25.7314 18.9731 1.6670 -0.1474 -2.4742 6.8181 0.3301 -16.7305 -20.3049 -0.0038 -0.4007 1.1009 6.8305 -0.0666 3.3815 3.0971 0.8955 -9.8183 -0.5569 -0.0441 -12.5275 2.0941 -1.1117 -13.0579 0.9378 -2.7428 36.1261 -0.4274 -0.7775 14.6448 0.0000 -0.0000 0.0000 -83.5321 -39.4544 36.5464 34.0507 -44.1223 -14.1484 -0.0000 0.0000 -25.9132 22.6473 -12.9311 -5.3341 -7.1250 0.0000 -0.0000 -3.2120 16.0237 2.2041 0.0000 -0.0000 0.0000 83.7980 43.9936 45.8895 -36.6911 45.9826 -16.0175 0.0000 -0.0000 -9.7086 9.0776 -41.0823 -5.9937 7.1250 -0.0000 -0.0000 54.7793 -62.6043 -27.5786
0.7305 17.5119 8.8493 -8.4511 -1.9571 7.1048 0.0000 0.0000 0.0000 -13.3007 -30.9585 15.2470 0.0058 -0.4918 -1.3513 -4.2084 35.6222 -28.4216 0.0000 0.0042 0.0115 0.0000 0.0000 0.0000 25.7134 18.9111 1.6404 -0.1479 -2.4787 6.8305 0.3201 -16.6512 -20.2881 -0.0039 -0.4019 1.1044 6.7977 -0.0512 3.2699 3.0444 0.8952 -9.7996 -0.5973 -0.0419 -12.4341 2.0839 -1.0589 -13.1611 1.0826 -2.7142 36.0801 -0.3620 -0.7461 14.6513 -0.0000 0.0000 0.0000 -83.8820 -38.9060 36.4791 34.1093 -44.1655 -14.1891 -0.0000 0.0000 -25.9724 22.7746 -12.9511 -5.3754 -7.1250 0.0000 -0.0000 -3.1251 15.9889 2.1466 -0.0000 0.0000 0.0000 83.3337 44.3821 45.6914 -36.7122 45.9967 -16.0327 0.0000 -0.0000 -9.6242 9.4287 -41.1558 -6.2370 7.1250 -0.0000 -0.0000 55.1926 -62.5547 -27.7935
0.7224 17.5115 8.8610 -8.4906 -1.9608 7.1401 0.0000 0.0000 0.0000 -13.1281 -30.7749 15.0862 0.0054 -0.4742 -1.3029 -4.1635 35.4644 -28.2790 0.0003 -0.1022 -0.2809 0.0000 0.0000 0.0000 25.7811 18.8522 1.6282 -0.1470 -2.4705 6.8079 0.3196 -16.6126 -20.2293 -0.0028 -0.3437 0.9444 6.7099 -0.0518 3.0845 3.0647 0.8668 -9.7602 -0.5245 -0.0415 -12.2736 2.1175 -0.9782 -13.3320 1.2086 -2.6547 36.0939 -0.3078 -0.6962 14.7007 0.0000 0.0000 0.0000 -84.0481 -38.5131 36.4707 34.1920 -44.2264 -14.2468 -0.0000 0.0000 -26.0646 22.9474 -12.9787 -5.4319 -7.1250 0.0000 -0.0000 -3.0073 15.9412 2.0686 0.0000 0.0000 0.0000 82.8457 44.6092 45.7286 -36.7443 46.0183 -16.0558 0.0000 -0.0000 -9.9630 8.9701 -41.1018 -5.9244 7.1250 -0.0000 -0.0000 54.7146 -62.6456 -27.5868
0.7135 17.5095 8.8716 -8.5399 -1.9128 7.1681 0.0000 0.0000 0.0000 -12.8969 -30.5586 14.8008 0.0041 -0.4151 -1.1407 -4.1038 35.2311 -28.0105 0.0019 -0.2817 -0.7739 0.0000 0.0000 0.0000 25.8580 18.7761 1.6199 -0.1458 -2.4608 6.7809 0.3077 -16.5403 -20.2475 -0.0042 -0.4184 1.1497 6.6107 -0.0819 3.0170 3.0942 0.8149 -9.7875 -0.4301 -0.0553 -12.2665 2.2581 -0.8435 -13.3490 1.2949 -2.5235 36.0643 -0.2757 -0.6082 14.6923 -0.0000 0.0000 0.0000 -84.1447 -38.2022 36.4724 34.2839 -44.2940 -14.3109 -0.0000 0.0000 -26.1064 23.1137 -12.9900 -5.4802 -7.1250 0.0000 -0.0000 -2.8932 15.9115 1.9918 -0.0000 0.0000 0.0000 82.5388 44.5778 45.7233 -36.7385 46.0144 -16.0516 0.0000 -0.0000 -10.1148 8.8575 -40.9049 -5.8264 7.1250 -0.0000 -0.0000 54.3267 -62.5531 -27.2132
0.7052 17.5071 8.8821 -8.6081 -1.8782 7.1712 0.0000 0.0000 0.0000 -12.7055 -30.3785 14.5985 0.0030 -0.3564 -0.9793 -4.0698 35.0699 -27.7572 0.0044 -0.4296 -1.1804 0.0000 0.0000 0.0000 25.9525 18.6450 1.5961 -0.1463 -2.4647 6.7917 0.2837 -16.3890 -20.2750 -0.0068 -0.5342 1.4680 6.5402 -0.0952 2.9962 3.1169 0.7921 -9.8109 -0.3628 -0.0588 -12.2821 2.4144 -0.7043 -13.3397 1.3689 -2.3828 36.0101 -0.2497 -0.5162 14.6660 -0.0000 0.0000 0.0000 -84.2643 -38.1009 36.4961 34.3312 -44.3286 -14.3440 -0.0000 0.0000 -26.0989 23.1988 -12.9402 -5.4820 -7.1250 0.0000 -0.0000 -2.8319 15.9559 1.9467 -0.0000 0.0000 0.0000 82.8682 44.1757 45.0760 -36.9073 46.1270 -16.1732 0.0000 -0.0000 -9.2480 9.4320 -40.6246 -6.1733 7.1250 -0.0000 -0.0000 54.4208 -62.2229 -26.8634
0.6959 17.5054 8.8925 -8.6881 -1.8278 7.1629 0.0000 0.0000 0.0000 -12.5608 -30.3087 14.5344 0.0026 -0.3264 -0.8969 -4.0398 34.9783 -27.7207 0.0043 -0.4257 -1.1698 0.0000 0.0000 0.0000 26.0786 18.5396 1.5940 -0.1469 -2.4701 6.8069 0.2742 -16.3259 -20.2821 -0.0074 -0.5565 1.5293 6.4695 -0.1091 2.8754 3.1538 0.7559 -9.7658 -0.2807 -0.0637 -12.1561 2.5401 -0.5548 -13.3963 1.4870 -2.2347 35.9188 -0.1993 -0.4191 14.6390 0.0000 -0.0000 0.0000 -84.3877 -38.1914 36.4499 34.4078 -44.3846 -14.3976 -0.0000 0.0000 -26.0999 23.1316 -12.9437 -5.4659 -7.1250 0.0000 -0.0000 -2.8784 15.9593 1.9786 0.0000 -0.0000 0.0000 84.1674 43.2822 43.5195 -37.4829 46.5058 -16.5894 0.0000 -0.0000 -6.9309 10.6457 -40.2653 -6.9269 7.1250 -0.0000 -0.0000 54.9641 -61.6761 -26.5274
